# xmcd
# 
# Track frame offsets:
#	150
#	13647
#	29750
#	43591
#	57762
#	78605
#	94263
#	107053
#	118947
#	133174
#	151879
#	171851
#	188498
#	203085
#	215897
#	233107
#	247372
#	260948
#	281651
#	299501
#
# Disc length: 4136 seconds
#
# Revision: 1
# Processed by: cddbd v1.5.1PL0 Copyright (c) Steve Scherf et al.
# Submitted via: Audio-CD-Archiv 3.00.486
#
DISCID=3b102614
DTITLE=Various Artist - Trucker and Country Songs (Box) - CD 2 (2003)
DYEAR=1900
DGENRE=country
TTITLE0=Joyce 'n' Webber: Sweet Talking Memory
TTITLE1=Val and Bird: Daydreamin'
TTITLE2=Tennessee: Ein Bier, ein Bier
TTITLE3=John Brack and Bjoro Haland: When You Were Loving Me
TTITLE4=Gunther Gabriel: 30 Tonner Diesel
TTITLE5=Country Rose: O' Carlos
TTITLE6=Rebecca Holden: We Feel In Love Anyway
TTITLE7=Jo Quint: Am Ende der Welt
TTITLE8=Billy Troy: Do It Like Elvis
TTITLE9=Cissy: Trucker fühl'n sich frei
TTITLE10=John Brack: Now I Know
TTITLE11=Krüger Brothers: Baby Come Back To Me
TTITLE12=The Cumberland Boys: That's Pretty Amazing
TTITLE13=Tex Robinson: Hey Good Lookin'
TTITLE14=Billy Troy: Coconut Dreams
TTITLE15=Sammy's Saloon: Sie kocht den besten Kaffee von ganz Texas
TTITLE16=Joyce 'n' Webber: God Made Love
TTITLE17=Giampiero Colombo: How Could I Love Her
TTITLE18=Val and Bird: She Don't Cry
TTITLE19=Jo Quint: Adios Amigos
EXTD=
EXTT0=
EXTT1=
EXTT2=
EXTT3=
EXTT4=
EXTT5=
EXTT6=
EXTT7=
EXTT8=
EXTT9=
EXTT10=
EXTT11=
EXTT12=
EXTT13=
EXTT14=
EXTT15=
EXTT16=
EXTT17=
EXTT18=
EXTT19=
PLAYORDER=
